<svg width="1220" height="1127" viewBox="0 0 1220 1127" fill="none" xmlns="http://www.w3.org/2000/svg">
<path d="M639.36 0.157738C666.191 -1.8145 684.389 14.8524 686.042 42.0326C686.52 49.9069 684.175 56.9778 681.438 64.2715C686.257 78.2168 693.274 94.5604 698.674 108.702C717.925 93.7179 737.335 78.9332 756.892 64.3499C765.238 40.8613 788.916 28.5007 812.63 37.065C822.801 40.7131 831.097 48.2628 835.683 58.0444C841.072 69.6678 841.157 90.4904 832.401 99.3425C820.082 111.797 820.994 114.741 815.288 130.977C811.344 142.203 807.328 153.405 803.244 164.581C820.762 143.119 838.273 121.667 856.771 101.035C865.086 91.7622 872.869 84.6766 886.174 84.2455C895.206 84.0184 903.925 87.5232 910.287 93.9334C917.212 100.792 920.971 110.224 920.659 119.967C920.469 126.184 918.583 132.231 915.216 137.458C909.295 146.806 874.479 177.068 863.88 187.171C881.361 182.606 907.433 172.063 923.433 183.356C930.444 188.34 935.122 195.963 936.389 204.47C938.649 219.262 931.105 234.257 916.685 239.456C909.307 242.115 900.9 242.875 893.124 243.968L869.887 247.206C880.369 257.906 882.764 266.912 882.745 281.438C894.697 283.025 898.818 284.45 908.915 291.025C930.897 271.003 955.064 253.399 986.421 261.38C989.947 262.279 998.103 265.807 1001.11 266.017C1010.81 266.694 1015.4 266.29 1024.78 269.777C1035.8 231.215 1049.18 193.366 1064.84 156.445C1068.8 147.213 1075.14 132.299 1080.36 124.215C1110.41 77.6963 1208.01 119.162 1197.13 172.797C1194.8 184.28 1186.86 196.72 1181.75 207.29C1176.41 218.457 1171.42 229.784 1166.77 241.257C1147.06 290.424 1135.98 330.006 1124.64 380.868C1129.56 376.454 1132.65 373.607 1138.71 370.742C1149.09 365.805 1161.03 365.314 1171.77 369.382C1197.21 378.915 1218.76 412.463 1205.82 438.664C1184.5 481.8 1142.84 523.9 1098.88 543.173C1115.05 542.115 1129.07 541.652 1145.12 546.114C1172.97 553.861 1197.11 575.102 1207.96 601.958C1208.75 603.923 1209.08 608.742 1209.26 611.038C1209.76 617.535 1212.28 623.358 1214.17 629.634C1215.95 635.506 1217.23 641.525 1217.99 647.617C1223.02 687.246 1210.08 729.501 1192.79 767.053C1163.28 831.119 1085.2 928.034 1004.17 893.494C978.895 882.724 960.728 855.697 951.642 829.919C948.843 836.477 943.32 851.343 939.475 856.928C930.309 870.257 925.913 884.255 917.818 897.934C915.014 900.922 909.815 905.416 906.086 906.818C869.14 920.705 838.873 897.015 823.627 866.302C821.655 873.301 820.48 881.658 818.006 888.443C815.134 896.44 809.085 902.893 801.296 906.279C785.646 913.211 770.326 907.822 757.639 898.252C745.209 888.878 740.543 883.936 733.918 869.535L733.575 868.898C731.886 868.512 727.189 872.345 725.646 873.497C679.258 908.11 610.949 936.65 580.035 866.957C558.429 877.697 536.234 892.27 515.632 905.024C505.446 911.447 495.774 918.274 485.233 924.128C462.819 936.576 437.072 925.499 426.143 903.45C422.909 896.929 421.989 891.657 421.607 884.365L372.193 914.245C364.711 918.678 354.545 923.901 347.552 928.598C320.565 946.734 309.931 966.224 276.166 946.085C274.477 957.125 273.336 967.534 264.248 975.096C241.38 993.508 212.89 976.425 196.339 958.411C173.574 933.637 176.598 898.601 178.12 866.994C172.005 869.296 163.143 873.711 156.979 876.576C144.4 904.816 132.044 933.159 119.911 961.601C114.502 974.423 104.004 1003.9 96.1492 1014.08C77.5651 1038.18 44.481 1023.76 30.3988 1002.69C28.6234 1000.03 22.4923 995.419 20.4543 992.418C-3.66545 964.301 7.46104 933.582 21.0061 902.783C14.7004 898.032 9.57295 891.89 6.02072 884.842C-2.00971 869.284 -0.708997 854.46 3.86921 837.799C10.3367 814.268 42.8606 798.44 64.1587 787.768C83.2559 744.723 124.266 681.857 152.792 643.38C125.308 652.963 100.707 657.353 71.9588 648.291C46.6664 640.319 27.2967 620.462 15.829 596.912C-9.62232 544.644 -0.830786 479.517 17.3057 426.432C45.3726 344.281 97.3236 272.738 164.259 217.879C191.184 195.812 219.146 175.791 250.674 160.473C283.085 144.727 319.934 132.255 356.442 137.638C364.195 138.782 370.901 141.019 378.217 143.52C371.993 137.314 362.72 129.92 358.321 122.483C350.662 109.533 352.396 91.7065 363.503 81.1418C369.566 75.3579 377.768 72.3681 386.132 72.8934C404.467 74.0096 417.553 92.5588 428.781 105.353C440.583 118.802 451.958 132.813 463.598 146.439C462.907 143.148 461.674 135.041 460.448 132.312C457.263 125.225 452.146 120.609 451.256 112.145C450.04 100.581 452.409 90.2504 459.43 81.023C474.353 61.4115 504.341 59.5917 521.616 77.0791C525.073 80.5784 526.845 85.4163 531.032 88.8231C542.834 98.4253 554.824 107.791 566.822 117.153C576.671 98.5863 586.373 79.9423 595.923 61.221C587.981 29.3579 607.245 3.88973 639.36 0.157738Z" fill="#040300"/>
<path d="M331.925 162.443C344.165 161.515 355.914 162.713 367.211 167.798C382.551 174.703 403.254 192.243 409.009 208.446C413.945 222.343 408.493 239.104 402.571 251.814C397.299 263.126 390.603 273.766 383.445 283.973C372.66 299.35 319.393 366.4 305.374 371.057C301.576 372.318 297.942 371.066 294.553 369.237C286.783 365.045 273.939 355.133 271.691 346.142C267.311 328.625 340.107 248.866 351.632 227.758C352.739 225.732 353.892 222.945 352.829 220.656C352.09 219.066 350.348 218.291 348.718 217.998C339.236 216.29 318.213 225.15 310.268 230.316C315.064 228.487 319.886 226.726 324.733 225.034C330.197 223.167 342.42 218.774 347.711 221.377L347.753 222.178C315.97 230.478 284.355 251.501 259.293 272.134C239.931 288.036 221.853 305.438 205.224 324.179C165.794 369.3 112.054 452.772 106.464 513.658C105.771 521.203 105.65 530.505 110.937 536.543C113.679 539.673 117.065 540.913 121.16 541.158C161.339 543.566 270.086 462.803 304.828 436.36C315.31 428.382 332.207 416.404 341.161 407.462C347.396 401.236 352.199 389.544 357.166 381.842C367.402 365.963 380.775 350.964 394.903 338.427C410.761 324.353 433.78 306.718 456.169 308.209C470.495 309.163 486.094 318.491 495.25 329.294C500.179 335.111 502.348 341.073 501.68 348.697C499.573 372.707 479.615 394.51 462.047 409.191C442.069 425.886 407.653 450.468 380.697 448.058C377.093 457.758 371.147 476.166 375.298 485.896C379.792 496.426 406.529 479.031 411.719 475.728C444.31 454.984 473.897 429.184 500.561 401.429C501.516 400.434 507.245 381.096 508.315 377.737C514.788 357.831 521.152 337.89 527.409 317.916C528.557 314.274 529.888 308.402 533.636 306.954C544.898 302.601 565.092 313.022 572.253 321.056C579.15 328.793 570.022 348.408 567.073 357.196C563.978 366.422 560.002 376.716 556.482 385.877C574.696 363.273 597.792 329.482 624.079 314.075C629.485 310.906 636.319 312.478 642.044 314.546C652.949 318.485 666.377 332.83 667.638 344.659C668.758 355.143 661.809 372.61 658.919 382.754C655.618 394.345 638.204 445.683 642.289 454.92L643.483 455.352C648.05 452.786 690.416 402.812 694.696 395.245C695.786 393.319 698.755 382.376 699.741 379.03C701.915 371.663 704.242 364.343 706.721 357.073C712.655 339.948 719.917 323.153 726.67 306.357C714.663 308.765 703.55 313.574 691.763 316.495C688.438 317.319 683.497 318.182 680.411 316.153C676.529 313.602 673.449 305.353 672.506 300.929C671.691 297.118 671.722 292.787 674.092 289.504C680.649 280.423 731.648 271.774 743.741 269.679C748.609 258.966 772.648 211.002 780.075 207.257C785.923 204.309 794.771 207.723 800.373 210.05C806.925 212.774 817.2 218.343 819.863 225.27C820.604 227.198 820.512 228.958 819.949 230.918C817.444 239.6 806.803 254.937 802.357 264.523C810.948 264.496 820.298 264.372 828.778 265.058C837.559 265.769 853.105 265.889 854.617 277.177C855.211 281.625 851.397 293.638 845.727 294.467C839.769 294.839 833.536 294.515 827.535 294.785C814.04 295.475 800.575 296.643 787.166 298.286C765.656 347.524 746.001 398.022 736.939 451.287C735.096 462.125 733.687 473.079 734.814 484.057C735.916 494.844 742.266 494.281 743.625 499.479C742.7 508.712 730.865 509.04 723.903 507.392C684.556 498.077 685.456 465.402 689.448 432.275C676.872 450.764 658.57 480.473 641.327 494.995C636.796 498.353 629.565 499.85 624.183 498.434C576.121 485.78 594.619 424.234 603.481 390.345C604.975 384.62 611.881 371.013 608.998 366.939C602.936 365.685 592.045 378.975 588.4 383.118C559.201 416.297 541.602 455.551 524.86 495.916C521.256 504.606 515.727 509.798 506.667 512.804C469.15 504.663 484.184 467.454 490.396 441.171C486.522 446.508 479.253 454.572 474.795 459.533C458.807 477.323 440.764 495.908 421.228 509.836C404.082 521.492 383.546 533.774 361.863 529.551C323.953 522.17 320.089 488.282 325.799 456.23C315.937 467.301 305.377 477.904 295.21 488.703C251.314 535.329 174.162 615.343 108.344 622.115C89.4778 624.056 70.3794 619.629 55.5592 607.432C35.8516 591.218 28.2148 563.609 25.954 539.173C18.2422 455.812 71.2832 360.192 122.925 298.492C170.306 241.883 255.176 169.281 331.925 162.443Z" fill="white"/>
<path d="M191.191 245.352L192.041 246.754C134.533 295.503 95.7208 348.851 65.8452 418.027C53.6071 446.364 47.2838 461.969 39.4502 491.592L38.2109 491.647C41.8028 474.43 43.4964 460.093 48.9285 442.558C73.188 364.247 127.248 295.479 191.191 245.352Z" fill="#040300"/>
<path d="M465.088 343.41L466.071 343.549C467.388 347.01 460.731 357.497 458.525 360.551C443.655 381.135 422.507 400.606 399.246 411.23L398.568 411.223L398.547 410.298C412.641 385.333 439.058 355.356 465.088 343.41Z" fill="#040300"/>
<path d="M100.914 609.495C150.57 598.786 210.774 553.488 249.266 520.973L250.372 521.854C245.959 526.274 241.467 530.616 236.9 534.877C208.255 561.644 167.893 595.865 129.589 606.697C120.954 609.14 109.87 609.795 100.914 609.495Z" fill="#040300"/>
<path d="M126.299 422.368C126.164 424.985 119.228 437.455 117.49 441.481C106.859 466.108 93.4059 496.876 94.3482 524.03C94.4217 526.142 95.0358 525.135 94.2564 527.028C81.9301 495.748 109.722 448.71 126.299 422.368Z" fill="#040300"/>
<path d="M386.041 264.387C385.966 267.334 380.376 275.228 378.658 278.131C362.807 304.913 342.86 324.061 320.305 345.22C320.846 342.749 366.059 290.165 371.335 283.706C376.436 277.42 381.34 270.977 386.041 264.387Z" fill="#040300"/>
<path d="M459.039 404.729L459.356 405.252C443.783 421.422 421.411 436.057 399.262 440.742L398.953 440.604L398.992 439.962C420.82 431.604 440.636 418.971 459.039 404.729Z" fill="#040300"/>
<path d="M378.484 522.483C396.252 518.073 409.695 509.432 424.592 499.06C427.358 497.134 434.367 491.021 436.597 489.949C435.114 494.487 407.546 514.187 401.951 516.987C394.723 520.609 386.904 522.905 378.865 523.766L378.484 522.483Z" fill="#040300"/>
<path d="M548.339 427.824C543.15 440.122 532.257 457.542 528.188 468.955L527.266 468.481C533.582 452.239 537.749 442.249 548.339 427.824Z" fill="#161516"/>
<path d="M703.548 306.828L704.876 306.884L704.797 307.272C700.278 309.666 690.071 312.712 685.105 314.175L683.617 314.546L683.642 314.045C687.891 310.207 697.914 308.004 703.548 306.828Z" fill="#040300"/>
<path d="M205.773 234.516L206.179 235.72L192.045 246.754L191.195 245.351C195.629 241.756 201.115 237.932 205.773 234.516Z" fill="#161516"/>
<path d="M249.266 520.972C252.576 518.093 257.92 513.161 261.403 510.893C258.215 514.58 254.047 518.631 250.371 521.853L249.266 520.972Z" fill="#161516"/>
<path d="M205.773 234.516C210.469 230.672 214.636 228.129 219.875 225.182C215.328 228.767 210.87 232.316 206.179 235.72L205.773 234.516Z" fill="#828284"/>
<path d="M369.76 524.072C366.95 524.195 366.17 524.34 363.484 523.744C366.866 522.77 370.499 522.874 374.031 522.791L369.76 524.072Z" fill="#DAD9DB"/>
<path d="M374.036 522.79L378.49 522.482L378.871 523.765C375.455 524.297 373.192 524.141 369.766 524.071L374.036 522.79Z" fill="#5B5B5D"/>
<path d="M38.2144 491.648L39.4537 491.592C39.0357 493.959 38.779 496.841 37.5331 498.805C37.1755 496.89 37.755 493.621 38.2144 491.648Z" fill="#828284"/>
<path d="M528.188 468.955C527.613 470.689 526.462 474.173 525 474.98C525.293 472.323 526.141 470.918 527.265 468.481L528.188 468.955Z" fill="#A1A2A7"/>
<path d="M484.767 744.386C490.355 726.66 496.667 713.605 502.957 697.104C501.648 696.179 498.083 694.403 497.588 693.454C494.651 687.803 498.826 686.884 499.718 681.741L497.845 681.459C491.106 676.383 495.735 667.94 500.909 663.396C513.446 652.399 627.027 618.159 631.68 634.275C629.794 638.322 613.06 640.38 607.004 642.737C613.042 641.745 626.617 638.378 631.068 642.909C631.233 643.778 631.411 644.997 631.846 645.774C636.334 653.863 621.014 656.796 615.975 657.977L616.905 657.892C620.769 657.567 625.747 656.722 628.613 659.153C629.072 661.308 629.127 660.237 628.129 662.453C621.143 664.878 612.381 663.905 603.765 666.929C609.246 666.323 613.372 666.231 618.92 666.152L618.516 666.366C609.319 671.381 597.018 674.289 586.741 677.461C575.437 681.012 564.172 684.692 552.95 688.501C550.366 698.567 543.414 716.508 539.655 726.929C537.886 727.443 537.283 727.78 535.639 728.564L535.923 728.95C546.446 727.762 587.255 714.15 594.408 719.018L594.428 720.188C589.876 726.317 581.321 728.411 574.203 730.86L574.128 731.748C579.114 730.297 592.338 726.825 595.377 732.268C594.967 734.124 595.279 733.236 593.636 734.84C594.886 735.697 594.87 735.489 596.461 735.893L597.208 736.934C595.756 742.42 585.09 743.774 580.034 745.764C583.16 745.66 586.773 745.292 589.702 746.106C590.924 747.392 590.861 746.829 591.015 748.109L591.518 749.995C589.126 754.826 574.604 758.273 569.14 760.477C554.389 766.423 538.195 771.199 523.767 777.799C518.898 793.223 514.824 806.7 511.656 822.62C524.612 816.203 592.085 781.773 603.122 785.055C604.739 785.539 605.051 786.329 605.81 787.676C604.892 792.648 584.894 800.406 579.388 804.147C586.756 801.563 608.523 793.015 615.356 798.232L615.565 799.236C613.489 801.857 608.994 803.443 605.823 804.839C608.296 804.453 615.16 802.99 617.01 803.253L617.677 804.373C617.181 805.935 617.016 806.443 615.503 807.374C601.898 815.738 586.83 822.449 572.946 830.36L574.017 831.388C578.256 829.784 597.544 819.736 600.239 821.873C598.481 825.394 586.692 830.641 582.627 832.766C576.408 836.06 570.244 839.465 564.138 842.967C543.665 854.386 523.626 866.565 504.061 879.485C493.439 886.392 483.107 893.764 472.356 900.45C469.153 902.446 463.605 904.657 461.093 900.72C460.846 896.231 462.998 894.192 465.676 890.629C462.836 892.398 461.588 893.329 458.341 893.66C455.992 892.802 456.85 893.427 455.28 891.394C453.119 888.59 453.781 892.656 450.568 891.633C448.178 890.868 448.468 890.819 447.26 889.08C446.46 882.222 454.043 876.785 457.595 870.588L457.053 870.38L453.571 872.229L452.136 871.745C449.057 868.451 447.944 864.483 446.731 860.258C448.936 855.636 450.229 854.338 453.624 850.694C454.307 834.505 464.516 800.259 470.835 784.859C467.738 783.261 465.123 781.724 464.978 777.916C468.338 772.24 468.208 772.374 463.998 767.868C463.568 765.553 464.557 762.228 465.084 759.804L464.632 759.504C462.547 762.718 460.54 765.97 458.471 769.196C430.508 812.762 392.631 848.741 351.937 880.305C340.798 888.951 329.5 897.389 318.668 906.402C325.543 902.734 326.967 902.673 334.719 901.834C328.708 907.149 305.218 925.212 298.712 928.108C297.193 927.459 295.694 926.761 294.218 926.026C283.575 920.601 290.518 912.182 294.954 905.012C291.856 907.357 288.165 910.89 284.508 910.767C283.407 909.555 282.37 907.761 281.624 907.039C278.095 903.622 278.83 908.539 274.864 908.582C265.496 902.734 269.355 901.803 266.403 893.549L264.835 894.101L263.762 893.507C259.072 882.467 274.844 872.204 282.263 866.247C283.66 856.413 286.535 844.063 288.787 834.303C295.666 804.845 304.002 775.748 313.764 747.117C315.571 741.698 325.333 709.938 329.345 708.529C329.572 713.863 322.183 733.297 320.12 739.959C317.622 748.299 315.185 756.65 312.809 765.027C315.941 759.804 318.197 750.895 320.144 744.968C325.514 728.625 328.774 715.295 337.811 700.533C330.016 703.508 314.624 713.379 307.587 708.878C300.348 704.255 304.318 696.614 307.545 691.636C305.289 691.042 303.243 693.693 299.491 693.099C295.929 690.019 299.175 685.372 297.555 681.514C296.684 679.445 296.581 678.484 297.505 676.347C302.433 664.952 353.571 643.901 367.129 639.817C393.396 631.899 425.611 628.146 450.702 641.813C465.197 649.791 475.958 663.176 480.644 679.041C488.291 705.449 478.886 732.862 466.05 755.922C473.889 751.244 475.387 748.348 484.767 744.386Z" fill="#FEDD0C"/>
<path d="M580.004 751.054L579.655 752.48C571.481 755.113 559.924 759.069 551.609 760.22C562.003 755.585 569.104 753.907 580.004 751.054Z" fill="#040300"/>
<path d="M580.005 751.054C584.114 750.129 587.008 749.376 591.019 748.108L591.522 749.994C587.842 749.927 583.297 751.452 579.656 752.48L580.005 751.054Z" fill="#806A09"/>
<path d="M574.131 731.747C571.581 732.947 568.165 733.988 565.459 733.162L565.18 733.462C567.87 731.9 571.099 731.502 574.206 730.859L574.131 731.747Z" fill="#FEC408"/>
<path d="M572.948 830.359L574.019 831.388L566.911 834.658L565.875 834.045L572.948 830.359Z" fill="#3A3607"/>
<path d="M565.871 834.045L566.907 834.657C565.02 835.772 564.414 836.31 562.211 836.586C562.787 835.196 564.13 834.957 565.871 834.045Z" fill="#97910F"/>
<path d="M401.36 685.347C409.362 684.416 424.222 683.547 430.032 689.29C439.161 698.309 430.2 714.45 425.158 723.506C407.561 755.113 382.158 784.614 356.357 809.731C351.288 815.327 346.773 820.072 340.828 824.72C345.106 819.203 351.782 792.206 354.242 784.179C361.027 762.632 368.176 741.201 375.687 719.899C378.045 713.225 382.953 702.718 383.577 695.603C383.877 692.174 380.104 691.642 378.924 689.162C382.939 687.564 396.553 685.935 401.36 685.347Z" fill="#040300"/>
<path d="M375.073 851.073L375.226 851.196L375.168 851.924C353.602 873.098 325.891 895.918 300.581 912.187L300.453 912.077C301.344 907.026 365.836 858.623 375.073 851.073Z" fill="#040300"/>
<path d="M449.649 771.419C449.555 776.146 435.741 794.999 431.868 798.875C425.614 805.139 416.23 812.792 409.228 818.524C409.177 817.207 409.075 817.697 410.469 816.295C424.839 801.863 437.111 787.412 449.649 771.419Z" fill="#040300"/>
<path d="M496.876 875.548C496.979 875.787 497.083 876.025 497.186 876.264C488.866 882.491 482.262 887.39 473.312 892.662L472.828 892.325C475.604 888.884 492.468 878.156 496.876 875.548Z" fill="#040300"/>
<path d="M85.2656 803.314C94.1905 779.366 112.87 749.1 126.61 727.284C142.138 702.626 221.476 581.482 245.272 576.791C249.003 576.057 252.503 576.951 255.57 579.161C262.55 584.176 263.954 591.217 265.044 599.147C265.722 596.606 267.189 591.866 270.053 591.664C275.471 595.363 283.576 604.762 283.904 611.515C284.293 619.512 281.732 627.956 281.023 636.026C277.581 675.225 270.355 714.572 267.107 753.766C262.023 755.223 256.374 756.644 251.605 758.823C260.964 757.164 286.795 750.821 293.783 755.217L294.011 756.374C291.058 761.481 280.956 764.279 275.304 766.251L277.677 767.549C281.755 766.881 286.548 765.896 290.31 766.226C295.726 766.416 296.707 773.525 293.788 777.015C291.324 779.954 287.285 781.191 283.665 782.128C274.244 784.559 265.403 786.928 256.516 790.963C263.136 789.402 281.375 784.418 286.754 787.179C287.186 792.292 261.996 798.458 257.436 800.552C258.988 800.901 259.551 800.766 261.132 800.668C262.371 802.303 261.434 807.306 261.124 809.541C256.817 840.523 253.509 871.641 251.203 902.837C250.395 913.939 249.659 925.046 248.994 936.153C248.68 941.229 248.414 946.458 248.052 951.534C247.88 953.947 247.231 954.387 245.798 955.771L244.492 956.09C243.026 955 242.345 953.781 242.249 951.859C241.519 937.157 242.84 922.217 242.363 907.454C242.258 904.234 242.609 898.76 241.91 895.869C239.261 901.937 239.687 925.395 239.142 932.791C238.714 938.608 241.596 950.714 236.98 955.061C234.687 955.63 234.32 955.624 232.197 954.449C222.814 949.275 225.229 941.596 222.249 934.561C220.452 936.79 222.163 938.425 220.329 939.245C216.247 934.402 217.276 914.912 215.271 907.589C213.553 913.436 215.293 926.007 212.213 931.793L211.062 932.314C208.355 930.973 206.879 926.711 205.991 924.011C198.179 900.278 206.533 844.963 207.636 818.689C179.63 828.945 155.567 842.721 129.118 854.055C115.835 886.954 100.579 919.841 87.3768 952.955C84.562 960.014 70.8054 996.067 67.7622 1000.13C65.2273 1001.14 66.3601 1001.2 64.22 1000.67C61.6263 996.685 65.3528 994.206 61.6747 991.928C55.2333 992.246 54.9834 999.404 49.1016 986.037C49.4133 983.509 50.6299 975.916 50.1817 974.049L48.3577 975.634C46.653 972.769 49.139 963.658 49.9423 960.119C47.389 964.748 45.407 971.544 41.4219 973.92C36.6532 974.324 34.9571 969.56 33.3317 965.654C34.755 958.074 35.8003 953.353 38.3649 946.103C41.1145 938.333 45.2919 929.179 46.8918 921.25C39.9564 931.671 34.2991 951.43 32.881 963.921C26.2578 946.293 44.6753 911.159 51.3653 893.794C53.0241 889.495 61.0948 873.135 63.5092 869.161C56.6918 872.577 41.6073 881.872 35.5614 880.176C34.0336 878.56 34.3767 879.484 34.3979 877.341C36.7775 873.098 41.0838 870.453 45.0237 867.508C40.1147 869.761 29.3327 876.508 25.9613 868.444C22.9546 861.25 35.3201 854.306 36.9983 851.202C35.3795 851.661 33.3569 853.847 31.8531 853.161C31.2327 852.88 30.1794 851.979 30.0761 851.269C29.9219 850.198 30.0173 850.663 30.2004 849.469C31.3297 842.091 22.0092 844.846 37.1824 832.753C51.5386 821.309 68.5117 813.3 84.9625 805.328L85.2656 803.314Z" fill="#FEDD0C"/>
<path d="M263.891 770.323C268.214 768.535 270.817 767.476 275.305 766.251L277.678 767.549L263.891 770.323Z" fill="#040300"/>
<path d="M94.3892 800.546C91.3026 802.824 88.6923 804.238 84.9609 805.328L85.264 803.314C87.1836 803.828 92.1935 801.409 94.3892 800.546Z" fill="#806A09"/>
<path d="M224.708 677.632C225.228 681.422 219.683 712.08 218.811 717.774C216.341 734.148 214.106 750.551 212.108 766.985C202.189 769.9 192.315 772.968 182.489 776.188C174.473 778.846 164.907 782.36 156.85 784.381L156.359 784.014C156.578 783.879 157.368 783.371 157.526 783.291C161.952 780.989 169.705 763.391 172.547 758.334C188.377 730.455 205.793 703.514 224.708 677.632Z" fill="#040300"/>
<path d="M100.271 894.229L101.011 895.318C98.3165 900.076 93.3238 915.494 91.2224 921.194C84.8697 938.418 78.7393 956.01 72.3052 973.228C69.8603 979.767 68.43 988.113 66.3218 993.752C61.6824 977.937 92.7195 911.244 100.271 894.229Z" fill="#040401"/>
<path d="M113.344 760.912C120.432 748.011 134.5 721.963 144.2 711.609C142.963 717.249 118.848 752.407 114.287 761.653L113.344 760.912Z" fill="#040300"/>
<path d="M189.372 819.185L190.482 819.313L190.398 819.791C172.454 828.92 168.224 830.769 149.378 837.217L148.617 837.352L148.666 836.88C157.745 831.192 179.54 822.816 189.372 819.185Z" fill="#040300"/>
<path d="M244.305 587.023C250.023 586.87 252.221 588.842 257.12 591.83C254.055 590.813 250.98 589.827 247.895 588.872C243.05 589.313 240.214 591.046 235.883 593.164C239.243 590.305 240.445 589.209 244.305 587.023Z" fill="#040300"/>
<path d="M58.2438 864.422C58.6988 864.569 58.4533 864.428 58.858 864.997C54.9411 868.255 49.4928 871.261 44.9152 873.527L44.3672 873.392L44.6562 872.412C48.2259 869.614 54.12 866.663 58.2438 864.422Z" fill="#040300"/>
<path d="M108.422 771.113C110.062 766.87 111.131 764.898 113.348 760.912L114.292 761.653C112.675 764.58 110.253 768.211 108.422 771.113Z" fill="#615609"/>
<path d="M100.266 894.229C100.735 892.698 100.821 891.681 102.113 890.806C102.447 892.808 101.893 893.09 101.006 895.318L100.266 894.229Z" fill="#97910F"/>
<path d="M1120.04 567.178C1142.42 565.348 1177.6 581.623 1181.12 605.674C1174 599.312 1170.52 592.73 1159.03 592.179C1147.77 591.646 1132.74 599.11 1124.75 606.647L1126.23 606.445L1125.64 606.709C1126.96 605.753 1128.32 604.872 1129.72 604.051C1136.37 600.175 1152.42 593.342 1160.2 595.375C1158.75 596.63 1149.98 599.208 1146.94 600.684C1137.08 605.46 1129.72 610.866 1121.76 618.287C1135.9 610.897 1142.1 607.627 1157.52 603.721C1177.85 611.583 1185.9 632.095 1187.34 652.417C1191.59 712.735 1159.13 777.027 1121.88 822.148C1102.02 844.154 1075.58 867.048 1045.07 870.453C1004.56 874.978 974.174 833.047 971.559 796.443C965.944 718.007 1033.84 574.857 1120.04 567.178Z" fill="#FEDD0C"/>
<path d="M1116.53 622.58C1120.56 624.613 1123.16 626.003 1125.46 630.252C1132.71 643.686 1128.05 669.532 1124.32 683.755C1112.38 729.36 1080.2 782.93 1040.59 809.351C1038.59 810.686 1034.06 813.056 1031.73 811.984C1029.26 810.851 1028.9 808.059 1028.22 805.604C1022.66 771.474 1041.7 719.814 1057.24 689.272C1058.79 695.034 1067.32 713.471 1076.39 706.711C1078.81 704.904 1075.68 693.987 1076.27 689.768C1079.8 664.768 1098.73 639.823 1116.53 622.58Z" fill="#040300"/>
<path d="M1177.6 690.466C1177.71 691.746 1177.65 692.199 1177.47 693.417C1169.75 744.814 1134.03 803.032 1092.14 833.904C1092.03 833.476 1091.9 833.108 1092.39 832.661C1123.97 804.048 1147.24 767.433 1164.66 728.808C1170.56 715.73 1173.23 703.912 1177.6 690.466Z" fill="#040300"/>
<path d="M1014.14 671.601C1014.14 671.723 1001.73 699.681 1000.73 702.087C992.081 722.783 985.089 741.973 980.386 763.942C979.976 760.452 981.856 751.359 982.584 747.839C988.358 720.034 998.369 695.321 1014.14 671.601Z" fill="#040300"/>
<path d="M1110.83 573.858L1112.14 573.883C1111.92 574.091 1101.04 578.144 1098.61 579.302C1088.66 584.065 1081.76 589.27 1072.92 595.663L1072.17 596.079L1071.84 595.656C1081.62 584.825 1096.52 576.92 1110.83 573.858Z" fill="#040300"/>
<path d="M1089.96 834.413L1090.72 834.958C1089.62 836.924 1085.89 839.269 1083.78 840.891C1083.36 840.408 1083.59 840.75 1083.35 839.722C1085.45 837.615 1087.58 836.177 1089.96 834.413Z" fill="#FEC408"/>
<path d="M1120.58 609.134L1121.26 609.734C1120.38 611.663 1118.04 612.863 1116.17 614.1L1115.73 613.714C1116.38 611.92 1118.94 610.377 1120.58 609.134Z" fill="#FEC408"/>
<path d="M623.889 61.7055C602.605 35.0261 650.475 7.01502 660.315 40.993C660.768 49.9284 658.833 54.5195 653.126 61.5824C655.661 67.9902 658.129 74.423 660.529 80.881C669.518 102.343 679.266 127.732 687.354 149.647C707.138 134.193 727.001 118.848 746.95 103.612C753.985 98.2056 772.079 83.6848 779.2 79.7666C780.204 78.3693 780.259 75.7824 780.455 73.9626C781.404 69.0409 783.7 64.6892 787.956 61.8536C792.315 58.9587 797.667 57.9661 802.774 59.105C813.048 61.4985 817.696 71.0303 814.371 80.8492C812.791 85.5137 809.38 89.3302 804.917 91.4114C803.888 91.8982 802.694 92.4095 801.61 92.7707L799.92 97.1665C787.717 127.394 775.349 157.555 762.815 187.647C756.434 203.273 750.122 219.149 743.705 234.78C742.945 236.63 742.235 238.041 740.478 239.071C737.827 240.624 729.346 239.239 726.732 238.292C715.814 236.309 705.595 235.594 694.53 234.727C639.356 230.06 583.829 237.332 531.721 256.049C525.87 258.753 514.793 263.536 512.476 253.443C504.405 218.291 497.568 182.81 489.604 147.619C487.769 139.509 485.953 131.263 484.533 123.071L483.696 120.791C479.761 117.987 477.52 115.557 476.144 110.724C474.939 106.461 475.504 101.893 477.71 98.0525C480.144 93.7847 484.193 90.6767 488.945 89.4306C498.343 86.9704 506.269 91.4751 508.607 100.944C509.329 104.282 508.769 104.427 511.361 106.34C532.96 122.428 553.876 140.809 575.418 156.856C587.092 132.282 600.144 108.097 612.261 83.7203C615.917 76.3702 619.86 68.8419 623.889 61.7055Z" fill="#FEDD0C"/>
<path d="M483.696 120.79C479.761 117.986 477.52 115.556 476.144 110.723C474.939 106.46 475.504 101.893 477.71 98.0517C480.144 93.7839 484.193 90.6759 488.945 89.4298C498.343 86.9696 506.269 91.4743 508.607 100.943C509.329 104.281 508.769 104.426 511.361 106.339C504.54 120.455 500.598 123.522 484.533 123.07L483.696 120.79Z" fill="#FEDD0C"/>
<path d="M508.614 100.943C509.336 104.282 508.776 104.426 511.368 106.34C504.547 120.455 500.605 123.523 484.54 123.071L483.703 120.791C498.899 122.89 508.652 117.394 508.614 100.943Z" fill="#FDB208"/>
<path d="M531.727 256.048C535.37 249.654 538.873 252.471 543.8 250.405C564.787 241.604 593.232 236.34 615.512 233.618C635.222 231.21 713.358 227.816 726.737 238.292C715.82 236.309 705.6 235.594 694.536 234.727C639.361 230.06 583.835 237.332 531.727 256.048Z" fill="#FDB208"/>
<path d="M660.32 40.9922C660.773 49.9276 658.838 54.5186 653.131 61.5815C655.666 67.9893 658.134 74.4222 660.534 80.8802C655.881 78.1842 652.133 68.9341 650.719 63.8973C643.004 68.3102 638.252 67.5393 630.078 65.9032C642.685 64.6284 651.178 62.7106 656.732 50.1106C657.999 47.2414 658.685 44.434 660.044 41.5549L660.32 40.9922Z" fill="#FDB208"/>
<path d="M799.928 97.1662C797.981 96.6776 794.386 96.0084 793.578 94.0998C795.586 92.8734 799.119 92.9432 801.618 92.7705L799.928 97.1662Z" fill="#FDB208"/>
<path d="M780.459 73.9619L780.619 78.9044C780.668 80.5424 781.856 84.883 782.309 86.6556L781.758 87.181C780.355 84.8665 778.978 82.5691 779.204 79.766C780.208 78.3687 780.264 75.7817 780.459 73.9619Z" fill="#FEC408"/>
<path d="M636.484 87.2744C638.198 89.0991 660.615 153.127 663.07 160.464C675.022 196.128 675.677 188.324 708.252 162.363L767.229 114.799C753.066 141.977 737.085 179.959 725.341 207.911C700.855 201.23 670.803 200.584 645.632 200.782C607.895 201.862 570.64 209.512 535.534 223.389C529.641 195.474 520.641 166.518 513.898 138.636C533.911 156.195 557.329 174.954 579.242 190.332C581.957 192.238 586.765 191.056 588.358 188.109C593.703 178.218 598.435 167.827 603.297 157.655C614.551 134.286 625.615 110.825 636.484 87.2744Z" fill="#040300"/>
<path d="M967.904 290.881C969.098 290.768 970.292 290.681 971.486 290.617C984.485 289.947 995.194 296.691 1004.43 305.015C1006.96 298.133 1009.03 295.036 1017.18 298.858C1023.45 301.799 1036.08 310.752 1036.87 318.009C1037.47 323.616 1031.14 333.98 1030.06 339.998C1020.02 381.035 1010.15 427.892 1019.34 469.943C1020.54 475.39 1028.82 480.289 1030.85 485.214C1030.49 492.618 1021.57 495.617 1015.22 494.74C1000.99 492.776 989.457 484.039 980.487 473.306C966.753 456.871 966.575 436.506 968.351 416.268C954.145 433.477 920.193 490.214 901.695 497.427C895.609 499.799 888.935 498.76 883.161 496.006C874.736 491.987 868.227 485.281 865.239 476.339C854.854 445.273 877.032 398.635 891.059 370.748C882.536 377.28 876.383 379.264 869.402 369.164C869.255 366.792 869.231 361.686 867.798 359.997C862.887 354.22 852.025 370.083 849.349 373.376C823.137 407.7 804.669 449.448 795.76 491.666C795.044 495.088 795.497 498.975 794.713 502.203C793.623 506.675 787.06 506.807 783.71 506.041C772.37 503.444 757.614 493.735 756.861 481.255C755.85 464.343 759.665 447.296 762.953 430.814C770.913 396.48 780.594 361.812 793.532 329.003C794.689 326.063 795.901 318.866 798.877 317.669C807.902 313.271 829.082 319.113 833.436 328.172C836.221 333.983 827.178 357.406 825.01 364.096C837.642 346.264 853.139 323.359 872.801 313.005C886.045 306.031 899.136 318.209 903.912 330.16C903.232 341.198 897.189 356.21 893.099 366.561C910.261 340.879 935.58 299.044 967.904 290.881Z" fill="white"/>
<path d="M991.254 325.637C993.366 326.043 993.862 326.694 995.032 328.357C994.903 330.523 986.558 339.718 984.77 342.361C976.871 354.053 969.499 366.111 961.716 377.885C945.166 402.936 928.174 427.363 909.597 450.969C908.764 451.827 908.672 451.846 907.705 452.557L907.117 451.704C907.417 437.984 917.398 414.928 923.87 402.199C937.494 375.408 961.863 335.375 991.254 325.637Z" fill="#040300"/>
<path d="M1037.83 529.085C1025.29 543.578 1018.25 553.182 1008.21 569.353L1008.39 569.604C1015.23 562.654 1043.69 522.899 1053.05 532.837C1053.52 534.38 1053.38 534.456 1053.18 536.097L1053.92 536.583C1055.55 537.656 1056.79 538.142 1057.49 539.866C1056.41 544.475 1037.03 566.26 1032.23 575.959C1038.45 569.181 1054.31 550.647 1061.39 546.983L1062.76 547.024C1064.17 550.089 1058.92 557.529 1057.13 560.542L1057.37 560.817C1059.82 559.207 1060.5 558.49 1062.59 556.396C1050.79 575.31 1036.74 592.988 1025.36 612.036C996.372 660.568 968.776 714.303 945.967 766.062C933.464 794.044 921.8 822.394 910.98 851.068C909.719 854.527 901.783 879.938 900.883 881.028C897.926 878.609 902.879 866.131 903.926 862.628C915.799 823.208 930.268 784.621 947.241 747.111L946.188 746.682C932.362 774.573 917.746 800.871 908.623 830.954C903.896 846.555 900.553 862.144 896.585 877.911C896.181 879.497 894.895 882.32 893.101 882.797C883.469 884.983 866.998 876.987 861.39 869.112C861.488 869.247 861.39 865.904 860.808 864.606L859.583 867.147L858.444 867.331C857.428 866.553 856.583 865.788 855.72 864.832C835.14 842.159 837.846 765.168 839.451 735.679C840.424 717.818 849.174 616.127 856.546 609.514C858.322 609.361 857.483 609.183 859.014 610.383C860.44 614.626 858.328 628.697 858.126 634.563C862.094 622.452 861.451 596.668 881.063 617.688C886.929 617.633 886.91 619.574 888.521 624.699C888.753 626.425 888.723 628.103 889.782 629.377C890.425 627.185 890.627 625.427 892.293 623.97C897.503 625.115 899.157 633.436 898.85 637.888C897.865 652.155 896.046 666.446 894.589 680.694C891.582 707.758 889.421 734.914 888.098 762.112L888.429 761.506C891.662 755.512 894.313 748.96 897.338 742.831C923.208 690.32 945.814 636.553 979.234 588.077C991.566 570.185 1004.38 551.835 1021.01 537.597C1023.46 535.466 1033.64 531.552 1037.83 529.085Z" fill="#FEDD0C"/>
<path d="M888.522 624.698C888.755 626.425 888.724 628.103 889.783 629.376C889.642 632.211 888.418 635.738 887.469 638.408C887.726 633.828 888.081 629.26 888.522 624.698Z" fill="#040300"/>
<path d="M951.913 735.96C950.535 739.909 949.261 743.418 947.241 747.11L946.188 746.681C948.043 742.885 949.831 739.64 951.913 735.96Z" fill="#615609"/>
<path d="M1119.07 135.447C1132.97 134.969 1144.04 138.068 1155.72 145.782C1159.91 148.289 1167.7 156.136 1165.97 161.708C1162.99 171.3 1156.61 182.402 1152.29 191.606C1147.48 201.982 1142.87 212.451 1138.47 223.008C1114.25 280.82 1091.03 358.218 1086.53 420.553C1085.93 428.771 1084.69 438.74 1086.28 446.786C1086.69 448.887 1087.43 451.435 1089.5 452.481C1101.95 458.798 1148.38 399.325 1158.27 397.51C1161.56 396.906 1165.54 399.226 1168.09 401.029C1172.61 404.212 1180.05 411.026 1180.8 416.669C1181.96 425.344 1170.57 438.574 1165.45 445.284C1150.46 466.638 1114.8 504.424 1089.34 511.328C1081.07 513.573 1073.32 512.651 1065.91 508.331C1051.12 499.722 1042.99 483.936 1038.84 467.866C1019.19 391.769 1061.69 256.395 1091.77 184.722C1096.85 172.613 1104.98 151.948 1111.65 140.992C1113.72 137.597 1115.24 136.421 1119.07 135.447Z" fill="white"/>
<path d="M1109.25 276.65L1110.16 277.589C1101.72 302.24 1095.49 326.285 1089.59 351.61C1085.7 368.283 1082.3 381.965 1079.76 398.901L1078.38 398.541C1081.95 354.98 1094.22 317.43 1109.25 276.65Z" fill="#040300"/>
<path d="M1161.08 438.999C1160.92 441.007 1156.79 445.925 1155.39 447.816C1140.73 467.585 1111.81 498.699 1086.69 501.934C1086.96 500.905 1088.32 500.925 1089.5 500.47C1104.67 494.705 1116.21 482.31 1128.37 472.033C1140.49 461.783 1150.64 450.896 1161.08 438.999Z" fill="#040300"/>
<path d="M1109.25 276.65C1110.04 274.379 1111.03 271.223 1112.01 269.111L1112.76 269.051L1112.92 268.272C1112.28 272.027 1111.45 274.067 1110.16 277.589L1109.25 276.65Z" fill="#5B5B5D"/>
<path d="M1077.86 405.081L1079.37 403.408C1078.87 407.199 1078.42 411.359 1077.68 415.068C1077.55 411.43 1077.33 408.711 1077.86 405.081Z" fill="#5B5B5D"/>
<path d="M1077.85 405.081C1077.96 402.763 1078.13 400.849 1078.38 398.541L1079.76 398.9L1079.36 403.408L1077.85 405.081Z" fill="#161516"/>
<path d="M731.217 618.563C736.342 617.877 741.552 618.287 746.512 619.763C761.532 624.362 777.574 645.284 771.623 659.753C768.457 667.449 733.433 703.165 727.267 706.147C725.008 705.651 725.932 706.202 724.438 704.341C723.789 701.463 724.647 698.879 725.265 695.928C722.491 700.018 717.526 708.351 711.764 706.919C708.096 702.62 711.262 697.397 712.933 693.276C711.525 693.987 711.36 694.036 709.835 694.446L709.327 693.387C710.711 684.447 719.956 671.631 725.039 663.396C704.673 673.481 686.941 685.696 671.627 702.608C667.096 707.617 658.389 719.912 668.645 724.014C691.766 733.26 714.219 736.493 734.535 752.45C772.541 782.312 739.716 826.385 711.335 848.575C690.713 864.538 669.968 878.174 643.48 880.831C613.679 882.074 590.906 849.818 607.317 823.201C613.93 812.474 625.766 801.679 638.067 797.558C641.245 796.493 645.035 798.176 645.292 801.991C644.129 804.067 640.149 806.357 637.822 808.237L638.085 808.8L640.326 808.084C640.626 809.167 638.679 811.598 637.895 812.639C631.527 821.126 631.007 824.457 627.633 833.304L626.849 832.796C625.888 830.212 626.102 828.143 626.084 825.375L625.3 825.742C624.057 830.151 624.719 837.878 630.964 836.458C653.687 831.296 676.06 814.292 692.819 798.409C716.178 776.268 682.196 774.927 667.317 770.733C653.993 767.218 640.877 764.769 629.593 756.289C619.918 748.88 613.587 737.926 612.007 725.839C608.131 697.299 637.154 666.972 657.985 651.517C679.404 635.628 704.606 622.365 731.217 618.563Z" fill="#FEDD0C"/>
<path d="M678.32 861.354C702.359 846.702 722.082 830.898 739.141 808.39C728.144 833.384 704.251 851.747 679.667 862.26L678.32 861.354Z" fill="#040300"/>
<path d="M764.882 660.604C765.415 666.476 742.502 686.933 737.322 691.819L737.273 691.115C741.364 683.314 757.828 667.553 764.882 660.604Z" fill="#040300"/>
<path d="M639.467 675.349C639.32 677.492 628.611 688.868 626.517 691.232C626.388 688.011 636.914 677.755 639.467 675.349Z" fill="#806A09"/>
<path d="M679.668 862.261C677.763 863.234 675.473 864.092 673.459 864.9L673.018 864.147L671.695 865.2L673.196 864.9L672.442 864.404C673.624 863.62 676.912 862.071 678.32 861.354L679.668 862.261Z" fill="#3A3607"/>
<path d="M766.564 847.106C766.368 851.153 766.191 858.899 761.77 860.216C759.933 859.542 759.064 858.568 758.072 856.934C744.632 834.823 767.526 731.289 774.622 704.457C776.374 697.82 781.296 673.505 786.721 670.695C796.439 665.662 809.395 672.556 818.427 675.685C820.637 676.451 821.905 677.547 823.607 679.145C823.209 683.706 822.805 685.696 821.745 690.179L822.639 691.501C823.331 688.513 823.65 685.562 825.578 683.315L826.907 682.911C832.038 687.521 824.905 707.501 823.276 714.524C820.104 728.099 817.122 741.722 814.336 755.389C807.724 787.633 802.256 820.104 797.945 852.739C797.247 858.073 795.19 877.036 793.347 881.291C791.387 882.283 792.318 882.259 790.505 881.775C789.079 879.962 788.914 879.148 788.142 877.017C785.546 878.07 785.864 882.13 782.35 880.85C773.851 877.746 768.334 862.304 768.175 853.682C767.789 851.607 767.728 849.274 767.281 846.824L766.564 847.106Z" fill="#FEDD0C"/>
<path d="M767.952 836.776C768.197 842.244 768.43 848.208 768.173 853.682C767.787 851.606 767.726 849.274 767.279 846.824L766.562 847.106C766.942 843.659 767.23 840.162 767.952 836.776Z" fill="#97910F"/>
<path d="M821.75 690.179L822.644 691.501C821.695 696.204 820.47 700.245 819.117 704.856C819.515 700.612 820.679 694.33 821.75 690.179Z" fill="#806A09"/>
<path d="M791.6 829.429C792.292 832.643 788.747 868.929 788.122 874.843C784.669 867.379 789.506 838.356 791.6 829.429Z" fill="#040300"/>
<path d="M967.561 521.912C969.294 521.746 968.969 521.915 970.806 522.5C971.394 523.293 971.939 523.685 971.976 524.725C972.098 528.086 956.007 557.381 953.27 560.424C951.592 562.292 948.788 562.531 946.406 562.868C938.501 563.988 930.296 564.27 922.324 564.894L880.846 568.195L751.583 578.047C749.385 577.936 749.544 577.936 747.725 576.663C747.443 576.197 746.519 574.642 746.758 573.754C747.725 569.652 753.958 539.921 756.855 539.135C767.717 536.183 816.205 533.39 826.051 532.626L967.561 521.912Z" fill="#FEDD0C"/>
<path d="M501.505 546.473C516.142 544.738 513.516 550.205 509.783 561.466C508.697 564.742 505.2 585.082 501.511 585.621C485.796 587.905 469.354 588.536 453.456 589.681L351.223 597.457C341.368 598.21 326.134 599.692 315.805 599.79C313.76 599.808 312.013 596.79 310.931 595.038C307.3 588.713 293.823 569.524 295.011 564.074C299.282 560.608 323.644 559.917 330.128 559.457L373.317 556.212C415.975 552.942 458.831 549.25 501.505 546.473Z" fill="#FEDD0C"/>
<path d="M601.497 523.11C630.477 519.896 630.832 543.696 624.678 564.546C621.348 575.806 621.464 588.983 613.694 598.786C599.641 616.5 577.017 613.849 555.923 615.79C550.814 616.114 536.06 618.778 532.054 617.02C531.522 616.788 531.45 616.72 531.296 616.163C530.688 613.953 548.521 531.363 550.664 528.036C552.12 525.775 595.576 523.531 601.497 523.11Z" fill="white"/>
<path d="M585.022 547.085C602.014 545.631 599.552 549.085 596.491 564.564C595.119 571.489 593.689 579.321 591.492 585.983C586.198 591.199 583.681 591.071 576.441 591.548C572.706 591.646 568.517 592.002 564.75 592.234L574.448 547.947L585.022 547.085Z" fill="#040300"/>
<path d="M697.318 515.76C717.384 513.654 727.97 526.546 723.666 545.809C717.2 574.734 716.82 603.702 679.843 606.696C672.465 607.296 664.866 607.811 657.561 608.362C645.995 609.342 631.655 605.282 630.412 589.197C629.695 579.994 633.045 572.267 634.435 563.443C641.513 518.403 657.408 518.644 697.318 515.76Z" fill="white"/>
<path d="M681.054 539.63C685.389 539.29 691.555 537.928 694.298 541.966C694.99 547.942 689.859 573.619 686.369 579.938C684.544 583.233 678.721 583.931 675.023 584.212C670.333 584.665 665.208 585.872 661.301 583.557C658.515 579.167 662.361 565.072 663.726 559.469C667.216 545.187 666.028 540.721 681.054 539.63Z" fill="#040300"/>
<path d="M799.626 611.828C800.196 612.104 803.153 614.204 802.982 614.265C811.548 611.277 817.377 612.636 824.774 617.688C827.327 619.433 828.974 622.66 831.374 625.134C832.648 624.142 831.944 624.436 833.444 624.178C844.159 629.732 839.616 641.629 835.287 649.779C831.564 656.79 828.564 659.741 821.933 663.947C817.757 666.182 805.909 671.516 803.906 664.792C804.341 662.276 806.056 661.076 807.948 659.178C777.988 672.263 805.192 621.699 801.108 617.1L798.09 617.988L797.502 617.167C797.747 614.541 798.188 614.167 799.626 611.828Z" fill="#FEDD0C"/>
<path d="M886.458 107.696C895.838 109.045 901.214 118.087 894.204 125.592C887.052 133.242 878.871 140.291 871.132 147.383L824.67 189.872C822.429 191.905 820.268 193.652 817.243 192.162C816.08 185.622 877.035 112.107 886.458 107.696Z" fill="#FEDD0C"/>
<path d="M383.843 96.7466C387.265 96.3933 390.733 96.3211 393.298 99.0495C413.973 121.04 432.589 145.109 451.104 168.928C453.349 171.816 458.462 177.423 457.322 180.956C455.394 182.283 456.405 182.036 454.262 181.973C450.057 178.307 445.73 173.696 441.792 169.686C422.602 150.138 402.753 131.304 383.163 112.165C377.321 106.457 377.034 101.959 383.843 96.7466Z" fill="#FEDD0C"/>
<path d="M906.592 200.986C917.124 203.551 914.228 215.255 908.448 216.315C889.448 219.798 865.354 222.39 846.776 226.286C844.266 226.813 843.648 226.864 841.651 225.955C840.408 224.19 840.641 225.132 840.8 223.066C845.24 217.523 897.2 202.695 906.592 200.986Z" fill="#FEDD0C"/>
<path d="M430.707 189.038C435.364 188.779 438.385 190.455 441.463 193.826C447.291 200.206 481.294 234.231 482.139 239.621C481.279 241.385 481.914 240.656 479.927 241.641C473.271 237.008 464.854 229.337 458.234 224.166C449.235 216.786 439.988 209.663 431.126 202.12C425.847 197.626 425.94 193.661 430.707 189.038Z" fill="#FEDD0C"/>
<path d="M818.349 1016.03C842.976 1014.76 977.04 1016.4 994.736 1025.68C997.583 1027.17 1000.03 1029.55 1000.87 1032.74C1001.58 1035.48 1000.96 1038.39 999.451 1040.75C996.64 1045.13 991.405 1047.19 986.452 1047.92C976.759 1049.33 965.45 1047.07 955.622 1046.36C941.239 1045.38 926.844 1044.58 912.442 1043.96C749.226 1037.86 585.887 1052.37 426.299 1087.15C379.695 1097.95 334.132 1109.47 289.032 1125.77C275.629 1130.6 269.887 1119.27 285.723 1110.3C315.999 1093.14 348.155 1083.2 381.432 1073.9C415.635 1064.34 449.748 1056.81 484.559 1050.22C594.657 1029.41 706.322 1017.98 818.349 1016.03Z" fill="#FEC408"/>
<path d="M953.953 929.663C956.366 929.644 956.151 929.259 957.774 930.367C958.141 932.828 957.088 932.994 956.549 935.051C955.986 937.194 957.811 934.065 957.088 937.831C953.886 941.235 942.729 942.925 937.684 944.046L932.075 956.69C935.902 955.747 942.913 953.059 945.999 955.471C946.765 957.908 945.399 958.949 946.226 962.58C943.96 965.415 931.677 967.962 927.587 969.113C925.665 973.773 924.55 977.049 923.074 981.886C927.667 980.337 942.932 973.265 945.877 977.478C945.362 979.945 944.983 982.884 943.899 985.076C939.803 987.77 918.323 997.145 913.516 997.984C911.073 995.559 909.206 993.697 906.983 991.016C908.698 987.189 914.104 972.542 914.527 968.054C914.606 967.191 913.039 965.727 914.41 962.378C918.501 960.125 923.76 949.722 923.166 945.068C920.589 940.372 914.527 942.693 910.277 943.611C904.742 960.002 897.174 978.102 891.204 994.536C890.898 995.381 886.232 998.682 884.934 1000.01L884.42 1000.54C883.844 1003.94 882.956 1010.18 879.821 1011.94L878.627 1011.57C878.266 1010.95 878.15 1010.81 877.892 1010.21C874.88 1003.21 892.441 956.953 895.551 948.816L895.851 947.573L895.27 946.911C892.306 946.734 888.981 947.964 886.036 948.803C884.848 947.591 883.758 945.778 882.791 944.333C877.017 957.284 869.345 981.347 865.138 995.063C860.956 996.379 859.511 997.384 855.47 995.828C851.435 991.732 848.202 969.585 847.369 962.966C842.973 973.228 839.593 988.095 834.149 997.959C833.066 999.925 826.557 999.796 824.414 997.065C823.538 991.199 841.467 944.407 844.779 936.08C845.783 933.557 852.439 935.1 854.643 936.367C857.184 939.398 859.787 964.717 861.115 971.361C864.299 959.549 869.002 947.989 873.117 936.508C876.172 927.979 884.805 929.363 886.569 936.325C893.476 936.073 910.486 931.028 918.727 930.452C925.316 929.987 926.412 933.618 928.144 933.594C935.89 933.49 945.877 930.508 953.953 929.663Z" fill="#040300"/>
<path d="M456.554 964.981C474.704 963.97 464.9 984.862 464.628 998.676C467.866 1001.3 469.523 1002.43 468.449 1006.9C467.1 1009.05 465.686 1009.5 463.354 1010.77C463.11 1016.68 462.965 1025.28 461.955 1031.33C461.925 1031.51 460.2 1033.58 459.96 1033.79C458.093 1035.39 460.337 1039.96 458.319 1042.54L457.194 1042.66C455.28 1040.07 456.982 1036.8 455.285 1034.37C453.648 1034.74 452.587 1035.19 451.038 1034.63C448.92 1031.8 450.273 1018.81 450.455 1014.23L433.623 1019.6C430.848 1026.02 426.897 1037.01 421.673 1041.08C420.928 1043.83 419.086 1052.6 416.329 1053.17C414.96 1050.36 415.906 1044.21 416.309 1040.99C413.709 1037.18 414.174 1037.08 415.614 1032.65C410.953 1034.81 387.835 1047.58 385.44 1047.43C383.272 1046.53 382.763 1045.62 381.244 1043.85C379.956 1042.03 379.456 1041.6 379.188 1039.36C379.835 1037.15 381.051 1036.41 382.78 1034.84C386.667 1015.29 394.177 991.139 402.376 972.935C403.373 970.724 411.494 972.64 413.889 975.328C414.396 976.816 414.464 977.888 413.867 979.352C407.382 995.21 402.132 1010.73 397.535 1027.23C403.912 1024.34 409.297 1022.59 415.894 1020.51C415.647 1013.02 419.749 1012.58 425.828 1009.78C430.968 999.258 446.484 969.034 456.554 964.981ZM452.785 985.003C450.991 987.747 441.369 1002.58 441.787 1004.66L451.536 1002.13C451.847 999.024 453.202 987.52 452.785 985.003Z" fill="#040300"/>
<path d="M639.946 946.679C643.968 946.85 648.714 946.948 651.628 949.752C652.026 951.032 651.665 953.481 651.053 954.528C645.04 964.821 633.265 1018.22 625.25 1021.52C624.166 1019.77 624.956 1017.36 624.693 1014.44C624.136 1013.72 621.889 1010.7 622.017 1009.98C624.491 996.741 628.642 983.19 632.935 970.424C626.114 978.831 620.756 987.495 615.331 996.808C613.09 1000.65 610.965 1004.09 606.477 1005.35C599.019 1003.98 600.127 988.052 599.87 981.923C599.895 980.331 599.809 979.872 599.644 978.274C596.129 981.054 590.327 1009.95 585.992 1016.55C583.223 1017.44 582.202 1017.25 579.22 1017.22C577.304 1016.27 577.359 1016.41 576.222 1014.63C575.723 1006.06 591.721 962.519 595.272 952.606C610.751 948.405 613.237 953.383 612.245 968.189C611.957 972.438 612.031 977.667 611.945 982.009C618.331 971.955 630.13 952.6 639.946 946.679Z" fill="#040300"/>
<path d="M370.762 977.747C380.35 978.01 386.508 982.137 387.367 992.075C389.092 1012.04 374.918 1044.46 355.418 1051.3C353.847 1051.49 352.554 1051.63 350.967 1051.42C347.832 1051.04 345.004 1049.36 343.175 1046.78C334.017 1034 344.467 1007.65 351.733 996.759C351.066 997.757 350.783 993.887 350.892 993.079C357.562 984.029 360.939 982.345 370.762 977.747ZM371.3 992.246C364.669 999.012 360.267 1005.4 357.176 1014.52C355.249 1020.2 351.425 1031.83 356.54 1036.56C365.706 1028.75 371.948 1013.88 373.636 1002.07C374.015 999.416 373.843 993.912 371.3 992.246Z" fill="#040300"/>
<path d="M568.068 953.923C597.657 952.466 578.695 1011.96 550.09 1021.51C528.716 1022.42 536.61 993.876 541.871 982.444C543.769 978.323 546.481 973.982 548.81 970.045C548.097 968.637 548.249 969.175 548.101 967.565C553.372 960.781 559.89 956.415 568.068 953.923ZM567.587 966.548C560.83 974.44 543.042 997.58 551.809 1007.98C561.054 1001.75 574.837 976.479 567.587 966.548Z" fill="#040300"/>
<path d="M330.672 980.919C340.971 979.725 349.024 986.73 343.907 997.69C342.293 1001.14 333.492 1012.25 329.46 1010.2C328.885 1006.59 331.241 1001.94 330.73 997.751C319.91 999.196 305.177 1036.46 307.898 1048.32L308.891 1048.87C315.107 1047.01 326.491 1031.62 332.021 1025.98C333.793 1028.43 334.444 1029.11 336.657 1031.18C337.819 1032.98 337.667 1035.23 336.691 1037.09C330.76 1048.43 320.202 1060.41 308.477 1065.88C300.983 1069.38 295.174 1064.56 292.981 1057.45C288.792 1043.91 295.378 1025.84 301.045 1013.66C306.951 1000.97 317.068 985.812 330.672 980.919Z" fill="#040300"/>
<path d="M703.599 942.307C723.584 940.886 713.071 960.449 712.379 974.997C715.686 976.926 717.284 978.022 716.549 982.174C715.067 984.2 712.863 985.002 710.561 986.196C709.973 990.819 710.39 1004.04 707.077 1006.74C701.916 1007.77 702.546 1008.39 701.028 1013.18L699.741 1013.52L699.925 1014.15C697.108 1007 698.223 996.012 698.934 988.462L683.883 992.467C677.735 994.255 674.104 1013.05 667.791 1011.63C658.289 1009.49 664.748 1001.51 667.362 996.403C665.881 994.671 665.673 994.628 664.883 992.424C664.852 990.177 665.992 988.952 667.235 987.011L674.019 984.243C679.193 973.662 694.286 948.785 703.599 942.307ZM701.395 960.608C698.37 965.078 691.861 974.306 690.055 978.739L690.618 979.59L699.981 977.465C700.318 974.8 702.264 961.992 701.395 960.608Z" fill="#040300"/>
<path d="M782.789 936.9C787.938 937.078 796.162 939.325 793.823 946.25C791.52 953.084 784.963 956.696 779.06 960.064L782.207 948.908C769.171 954.523 760.115 968.452 755.627 981.47C754.568 984.556 753.79 988.867 757.623 989.969C763.513 988.91 768.908 982.395 772.925 978.121L764.524 979.988C762.479 970.093 765.007 970.614 774.119 967.669C778.631 966.211 784.607 964.521 788.973 966.977C791.269 970.54 790.345 972.714 787.142 975.12C782.568 982.174 778.852 1008.53 766.361 1007.67L765.344 1006.37C766.128 1001.66 768.638 996.588 770.677 992.302C766.269 997.016 753.808 1007.32 747.018 1002.3C735.684 993.918 744.563 972.947 750.545 963.499C757.892 951.896 768.932 940.213 782.789 936.9Z" fill="#040300"/>
<path d="M532.453 957.106C554.776 959.543 535.349 982.37 527.619 982.125L526.856 981.292C526.974 979.609 529.592 971.771 530.274 969.518C520.204 976.443 503.08 1001.23 509.101 1013.1C513.586 1014.09 525.65 997.225 529.297 996.08C530.99 997.041 531.35 998.125 532.342 999.851L532.756 1000.58C537.242 1008.5 514.76 1027.06 506.938 1028.23C499.501 1029.34 495.306 1023.95 494.607 1017.55C492.359 996.974 510.928 960.909 532.453 957.106Z" fill="#040300"/>
<path d="M830.559 935.161C832.654 934.867 832.672 934.763 834.791 935.326C837.84 938.921 836.107 941.988 833.633 945.368C827.859 946.513 822.091 947.707 816.342 948.938C814.327 953.138 812.564 957.473 810.764 961.772C813.899 960.988 824.412 957.559 826.298 960.945C825.735 962.188 825.581 962.494 824.785 963.554L824.149 964.392C824.461 965.831 824.553 965.997 824.498 967.448C821.95 970.307 810.464 972.885 806.037 974.3C804.377 978.022 803.067 982.817 801.861 986.772C807.151 984.697 820.738 977.086 823.598 983.705C823.169 986.852 823.867 987.066 823.72 989.442C817.707 992.803 799.62 1000.64 793.417 1002.64C789.798 1000.11 788.819 999.135 785.727 995.975C787.276 992.993 793.368 977.306 792.884 973.571C792.511 972.812 792.266 971.171 792.793 970.314C796.993 963.511 799.846 959.433 801.965 951.62C798.285 947.346 798.665 946.574 800.955 941.437C810.598 938.241 820.53 936.514 830.559 935.161Z" fill="#040300"/>
<path d="M975.269 914.594C976.622 916.204 977.584 918.745 978.508 920.735C980.847 922.039 987.442 925.358 985.433 928.958C977.253 943.605 970.236 958.196 963.88 973.706C960.813 973.699 957.929 974.593 956.337 973.332C952.155 963.872 972.544 927.795 975.269 914.594Z" fill="#040300"/>
<path d="M955.205 980.147C967.892 979.547 961.212 993.024 954.476 997.714C942.843 999.423 946.994 985.119 955.205 980.147Z" fill="#040300"/>
</svg>
